<svg xmlns="http://www.w3.org/2000/svg" width="30" height="30" viewBox="0 0 30 30">
  <defs>
    <style>
      .cls-1 {
        fill: none;
      }

      .cls-2 {
        fill: #01132d;
      }
    </style>
  </defs>
  <g id="add_a_photo-24px" transform="translate(0.153 -0.058)">
    <rect id="Rectángulo_3526" data-name="Rectángulo 3526" class="cls-1" width="30" height="30" transform="translate(-0.153 0.058)"/>
    <path id="Trazado_1290" data-name="Trazado 1290" class="cls-2" d="M3.8,5.019V1H6.33V5.019h3.8V7.7H6.33v4.019H3.8V7.7H0V5.019Zm3.8,8.038V9.038h3.8V5.019h8.862L22.573,7.7h4.013a2.616,2.616,0,0,1,2.532,2.679V26.452a2.616,2.616,0,0,1-2.532,2.679H6.33A2.616,2.616,0,0,1,3.8,26.452v-13.4Zm8.862,12.056a6.524,6.524,0,0,0,6.33-6.7,6.524,6.524,0,0,0-6.33-6.7,6.524,6.524,0,0,0-6.33,6.7A6.524,6.524,0,0,0,16.458,25.113Zm-4.051-6.7A4.169,4.169,0,0,0,16.458,22.7a4.169,4.169,0,0,0,4.051-4.287,4.169,4.169,0,0,0-4.051-4.287A4.169,4.169,0,0,0,12.407,18.415Z" transform="translate(0.301 -0.5)"/>
  </g>
</svg>
