<svg xmlns="http://www.w3.org/2000/svg" xmlns:xlink="http://www.w3.org/1999/xlink" width="88" height="87.999" viewBox="0 0 88 87.999"><defs><linearGradient id="a" x1="0.5" x2="0.5" y2="1" gradientUnits="objectBoundingBox"><stop offset="0" stop-color="#0058ad"/><stop offset="0.004" stop-color="#0058ad"/><stop offset="1" stop-color="#01132d"/></linearGradient><filter id="b" x="32.529" y="38.301" width="28.841" height="29.337" filterUnits="userSpaceOnUse"><feOffset dy="3" input="SourceAlpha"/><feGaussianBlur stdDeviation="3" result="c"/><feFlood flood-opacity="0.161"/><feComposite operator="in" in2="c"/><feComposite in="SourceGraphic"/></filter><filter id="e" x="32.529" y="38.301" width="28.841" height="29.337" filterUnits="userSpaceOnUse"><feOffset dy="3" input="SourceAlpha"/><feGaussianBlur stdDeviation="3" result="f"/><feFlood flood-opacity="0.161"/><feComposite operator="in" in2="f"/><feComposite in="SourceGraphic"/></filter><filter id="h" x="0" y="0" width="88" height="87.999" filterUnits="userSpaceOnUse"><feOffset dy="3" input="SourceAlpha"/><feGaussianBlur stdDeviation="3" result="i"/><feFlood flood-opacity="0.161"/><feComposite operator="in" in2="i"/><feComposite in="SourceGraphic"/></filter></defs><g transform="translate(9 6)"><g transform="matrix(1, 0, 0, 1, -9, -6)" filter="url(#h)"><path d="M55.682,70H14.318a6.564,6.564,0,0,1-6.109-5.385L.127,30.426a3.564,3.564,0,0,1-.127-1,3.467,3.467,0,0,1,3.182-3.688H18.423L32.36,1.586a3.008,3.008,0,0,1,5.281-.037L51.577,25.743H66.819A3.467,3.467,0,0,1,70,29.431l-.1,1L61.823,64.615a7.635,7.635,0,0,1-2.259,3.854A5.772,5.772,0,0,1,55.682,70ZM43.237,57.56a2.307,2.307,0,1,0,1.969,2.282A2.145,2.145,0,0,0,43.237,57.56Zm-12.821,0a2.307,2.307,0,0,0,0,4.564,2.307,2.307,0,0,0,0-4.564Zm4.927-6.018a2.279,2.279,0,0,1,.516.069c.193.046.4.105.6.176s.413.149.608.23.369.154.536.229l.383.168a5.362,5.362,0,0,1,1.21.76,6.564,6.564,0,0,1,1.138,1.2,8.141,8.141,0,0,1,.913,1.6,7.407,7.407,0,0,1,.535,1.924l0,.014a1.818,1.818,0,0,1,1.451-.769,1.785,1.785,0,0,1,1.349.643,15.975,15.975,0,0,0-.633-2.235,12.176,12.176,0,0,0-1.462-2.828,9.565,9.565,0,0,0-2-2.078A10.5,10.5,0,0,0,38,49.258c.639-.651,1.3-1.344,1.965-2.062.638-.689,1.274-1.413,1.891-2.154s1.2-1.5,1.766-2.292,1.091-1.614,1.588-2.475a2.178,2.178,0,0,0,.04-.445,3.7,3.7,0,0,0-.067-.666,2.943,2.943,0,0,0-.2-.66,1.594,1.594,0,0,0-.338-.5.657.657,0,0,0-.47-.2.96.96,0,0,0-.7.292,2.762,2.762,0,0,0-.218.246c-.467.178-.94.343-1.407.491a15.474,15.474,0,0,1-3.776.769c-.091,0-.185.005-.277.005a7.487,7.487,0,0,1-2.811-.555,6.284,6.284,0,0,1-.985-.5l0,0-.015.116.008,0,.008,0,.252,1.49-.246.055.005-.072c.013-.218.02-.442.02-.667a4.487,4.487,0,0,0-.047-.689,1.24,1.24,0,0,0-.165-.475.684.684,0,0,0-.338-.268,1.592,1.592,0,0,0-.562-.085c-.125,0-1.541.244-2.92.551-1.258.279-2.782.673-2.894.967a.237.237,0,0,0-.01.2c.042.074.155.107.368.107.122,0,.267-.011.434-.023l.045,0,.036,0,.04,0c.205-.015.446-.031.7-.031a2.421,2.421,0,0,1,2.687,2.173c.362,1.864-.066,5.026-.489,7.35-.431,2.377-.953,4.416-1.011,4.64l0,.007c-.064.3-.127.614-.185.942s-.114.67-.166,1.035c-.048.339-.088.682-.119,1.02-.021.226-.034.419-.041.59a1.725,1.725,0,0,1,1.019-.339,1.785,1.785,0,0,1,1.379.678c.011-.335.022-.655.031-.951.017-.377.046-.781.085-1.2a11.839,11.839,0,0,1,.205-1.326l.33-1.564a5.319,5.319,0,0,0,.648-.26c.264-.121.576-.265.893-.414s.609-.285.84-.392A1.633,1.633,0,0,1,35.344,51.542ZM25.7,45.887a5.288,5.288,0,0,0-.629.035c-.251.029-.386.081-.4.157s.11.158.112.159h.006c.234-.017,1.466-.1,2.737-.1H30.5l-.2-.132c-.011,0-1.382-.084-2.771-.084-.56,0-.954-.013-1.27-.023C26.046,45.893,25.868,45.887,25.7,45.887Zm2.058-1.75a2.292,2.292,0,0,0-.413.035c-.153.027-.241.075-.26.143-.025.084.066.169.07.173h.007c.218-.023.991-.1,1.791-.1H30.9l-.133-.132c-.007,0-.9-.085-1.815-.085-.367,0-.625-.013-.833-.023C27.985,44.143,27.868,44.138,27.759,44.138Zm-1.653-1.749a5.29,5.29,0,0,0-.629.035c-.251.029-.386.082-.4.157s.11.158.111.159h.006c.234-.017,1.467-.1,2.738-.1H30.9l-.2-.132c-.011,0-1.382-.084-2.77-.084-.56,0-.954-.013-1.27-.023C26.451,42.395,26.272,42.389,26.106,42.389Zm.222-2.711a.591.591,0,1,0,.5.585A.55.55,0,0,0,26.328,39.678ZM37.51,37.021a.829.829,0,0,0-.785.635,1,1,0,0,0,.567,1.2.788.788,0,0,0,.28.052.83.83,0,0,0,.786-.634,1,1,0,0,0-.567-1.2A.792.792,0,0,0,37.51,37.021Zm1.67-.145a.31.31,0,0,0-.287.242.366.366,0,0,0,.194.443.268.268,0,0,0,.094.017.309.309,0,0,0,.288-.242.366.366,0,0,0-.194-.443A.265.265,0,0,0,39.179,36.876Zm-.63-1.579a.417.417,0,0,0-.4.312.515.515,0,0,0,.308.608.438.438,0,0,0,.156.029.417.417,0,0,0,.4-.311.515.515,0,0,0-.308-.608A.44.44,0,0,0,38.549,35.3ZM35,9.515,25.455,25.743H44.545Zm8.238,52.025a1.471,1.471,0,0,1-1.327-.979,1.823,1.823,0,0,1,.708-2.255,1.29,1.29,0,0,1,.617-.159,1.471,1.471,0,0,1,1.327.98,1.822,1.822,0,0,1-.708,2.254A1.28,1.28,0,0,1,43.238,61.539Zm0-2.224a.532.532,0,1,0,.454.526A.495.495,0,0,0,43.237,59.315Zm-12.82,2.224a1.471,1.471,0,0,1-1.327-.979A1.823,1.823,0,0,1,29.8,58.3a1.29,1.29,0,0,1,.617-.159,1.471,1.471,0,0,1,1.327.98,1.822,1.822,0,0,1-.708,2.254A1.28,1.28,0,0,1,30.417,61.539Zm0-2.224a.532.532,0,1,0,.455.526A.495.495,0,0,0,30.416,59.315Zm2.2-9.7v0c0-.021.026-.193.066-.472l.229-.051.07.411-.207.065-.157.048Zm.507-.158h0l-.067-.4,1.231-.278.017.1.134-.081-.009-.052.141-.031c.137-.089.262-.173.38-.256l-.549.123-.248-1.467,1.231-.278.2,1.152.087-.065.043-.032-.184-1.086,1.231-.278.085.5c-.291.305-.594.595-.9.861a10.078,10.078,0,0,1-1.3.966,7.78,7.78,0,0,1-1.515.6Zm-.417-.49h0l.031-.22.053-.375.095.556-.177.04Zm.321-.073h0l-.17-1,.032-.228.038-.267,1.083-.245.248,1.467-1.23.278Zm-.076-1.678h0l.077-.541,0-.028c.044-.306.088-.618.133-.929l.582-.131.193,1.138.041.262-1.029.232Zm1.177-.265h0l-.237-1.4,1.23-.277.194,1.137.04.263-1.226.276Zm2.838-.054v0l-.067-.4.535-.121-.112.126-.138.155c-.077.087-.148.164-.217.238ZM35.5,46.643h0l-.237-1.4,1.231-.277.193,1.138.04.262-1.226.276Zm1.373-.31h0l-.237-1.4,1.231-.277.173,1.021q-.212.247-.421.486l-.745.168Zm-3.685-.792h0c.08-.557.159-1.1.231-1.59l.047-.01.251,1.482-.528.118Zm4.975-.006v0l-.154-.908,1.122-.253c-.172.212-.408.5-.706.854l-.1.115-.164.192Zm-4.3-.145h0l-.251-1.481,1.231-.278.251,1.482-1.23.278Zm1.373-.31h0L34.983,43.6l1.231-.277.251,1.482-1.23.278Zm1.373-.31h0l-.251-1.481,1.231-.278.251,1.483-1.23.277Zm1.373-.31h0l-.251-1.481,1.231-.278.251,1.482-1.23.278Zm1.353-.437h0L39.1,42.668l.039-.009-.021-.125,1.059-.239.106.625c-.274.352-.553.705-.855,1.081l-.1.022Zm-5.752-.28h0l-.07-.412c.091-.6.148-.946.179-1.1l0-.009c0-.016.006-.031.008-.046l.861-.194.251,1.481-1.23.278Zm1.373-.31h0L34.7,41.952l1.231-.277.251,1.481-1.23.278Zm1.373-.31h0l-.251-1.481,1.231-.278.251,1.482-1.23.278Zm1.373-.31h0l-.251-1.481,1.231-.278.251,1.482-1.23.278Zm2.708-.052v0l-.084-.5.563-.128-.062.084c-.127.167-.264.346-.416.542Zm-1.355-.385h0l-.229-1.354.041-.009-.021-.129,1.057-.238.251,1.483-1.1.247ZM40.3,42.1h0l-.251-1.481,1.23-.277.175,1.036c-.135.185-.272.371-.409.555L40.3,42.1ZM33.735,42v0c.036-.19.069-.365.1-.529.044-.233.082-.46.112-.675.018-.125.033-.252.047-.391l.288-.065.251,1.482-.8.179Zm.941-.212h0L34.425,40.3l1.231-.277.251,1.482-1.23.277Zm1.373-.31h0L35.8,40l1.231-.277.251,1.482-1.23.277Zm5.523-.27v0l-.153-.9.862-.194.039-.062.084-.135-1.013.228L41.216,39.1c.388-.111.8-.239,1.213-.382l.151.89a3.276,3.276,0,0,1-.293.586c-.24.347-.48.686-.713,1.008Zm-4.15-.04h0l-.251-1.481.176-.04c.147.011.3.018.455.022h.122c.164,0,.339-.007.519-.021l.211,1.243-1.23.277Zm1.354-.437h0l-.185-1.094c.337-.031.711-.086,1.112-.164l.171,1.012-1.1.247Zm1.242-.28h0l-.171-1.007c.388-.08.8-.181,1.228-.3l.175,1.03-1.23.277Zm-5.621-.31h0l-.232-1.368a7.758,7.758,0,0,0,1.371.544l.093.548-1.23.277Zm1.373-.31h0l-.08-.47a8.782,8.782,0,0,0,1.141.232l-1.06.238Zm6.915-.471v0l-.116-.684c.214-.075.424-.151.609-.221a3.279,3.279,0,0,0-.21.336c-.1.182-.195.374-.282.57Z" transform="translate(9 6)" fill="url(#a)"/></g></g></svg>